<svg xmlns="http://www.w3.org/2000/svg" xmlns:xlink="http://www.w3.org/1999/xlink" width="60.2" height="55.806" viewBox="0 0 60.2 55.806">
  <defs>
    <style>
      .cls-1 {
        fill: #b4c3cc;
      }

      .cls-2 {
        fill: #8899a6;
      }

      .cls-3 {
        fill: #fad42a;
      }

      .cls-4 {
        filter: url(#Path_50);
      }

      .cls-5 {
        filter: url(#Path_48);
      }
    </style>
    <filter id="Path_48" x="0" y="0" width="60.2" height="42.655" filterUnits="userSpaceOnUse">
      <feOffset dy="3" input="SourceAlpha"/>
      <feGaussianBlur stdDeviation="3" result="blur"/>
      <feFlood flood-opacity="0.161"/>
      <feComposite operator="in" in2="blur"/>
      <feComposite in="SourceGraphic"/>
    </filter>
    <filter id="Path_50" x="14.067" y="13.15" width="30.308" height="42.656" filterUnits="userSpaceOnUse">
      <feOffset dy="3" input="SourceAlpha"/>
      <feGaussianBlur stdDeviation="3" result="blur-2"/>
      <feFlood flood-opacity="0.161"/>
      <feComposite operator="in" in2="blur-2"/>
      <feComposite in="SourceGraphic"/>
    </filter>
  </defs>
  <g id="Icon" transform="translate(9 6)">
    <g id="storm-thunder-svgrepo-com">
      <g class="cls-5" transform="matrix(1, 0, 0, 1, -9, -6)">
        <path id="Path_48-2" data-name="Path 48" class="cls-1" d="M29.013,10.66a13.59,13.59,0,0,0-9.633,3.91A7.229,7.229,0,0,0,14.067,12.3a6.814,6.814,0,0,0-7.033,6.575c0,.055,0,.11,0,.164A8.381,8.381,0,0,0,0,27.1c0,4.539,3.936,8.218,8.792,8.218h20.22C36.3,35.315,42.2,29.8,42.2,22.988S36.3,10.66,29.013,10.66Z" transform="translate(9 -4.66)"/>
      </g>
      <path id="Path_49" data-name="Path 49" class="cls-2" d="M57,47.362a11.8,11.8,0,0,1,3.025,7.857c0,6.808-5.9,12.328-13.188,12.328H26.619A9.145,9.145,0,0,1,21.344,65.9a8.992,8.992,0,0,0,7.033,3.287H48.6c7.284,0,13.188-5.519,13.188-12.327A12.005,12.005,0,0,0,57,47.362Z" transform="translate(-19.585 -44.534)"/>
      <g class="cls-4" transform="matrix(1, 0, 0, 1, -9, -6)">
        <path id="Path_50-2" data-name="Path 50" class="cls-3" d="M177.7,191.192v-9.866l-7.033,14.8h5.275v9.859l7.033-14.79Z" transform="translate(-147.6 -162.18)"/>
      </g>
    </g>
  </g>
</svg>
